<svg width="210" height="33" viewBox="0 0 210 33" fill="none" xmlns="http://www.w3.org/2000/svg">
<path d="M0.698864 32V1.45454H11.0199C13.4162 1.45454 15.375 1.88707 16.8963 2.75213C18.4276 3.60724 19.5611 4.76562 20.2969 6.22727C21.0327 7.68892 21.4006 9.3196 21.4006 11.1193C21.4006 12.919 21.0327 14.5547 20.2969 16.0263C19.571 17.4979 18.4474 18.6712 16.9261 19.5462C15.4048 20.4112 13.456 20.8438 11.0795 20.8438H3.68182V17.5625H10.9602C12.6009 17.5625 13.9183 17.2791 14.9126 16.7124C15.907 16.1456 16.6278 15.38 17.0753 14.4155C17.5327 13.4411 17.7614 12.3423 17.7614 11.1193C17.7614 9.89631 17.5327 8.80256 17.0753 7.83807C16.6278 6.87358 15.902 6.1179 14.8977 5.57102C13.8935 5.0142 12.5611 4.73579 10.9006 4.73579H4.39773V32H0.698864ZM30.4016 1.45454V32H26.8817V1.45454H30.4016ZM43.59 32.5369C42.1383 32.5369 40.8208 32.2635 39.6376 31.7166C38.4544 31.1598 37.5147 30.3594 36.8187 29.3153C36.1227 28.2614 35.7747 26.9886 35.7747 25.4972C35.7747 24.1847 36.0332 23.1207 36.5502 22.3054C37.0673 21.4801 37.7583 20.8338 38.6234 20.3665C39.4885 19.8991 40.443 19.5511 41.487 19.3224C42.541 19.0838 43.6 18.8949 44.6639 18.7557C46.0559 18.5767 47.1845 18.4425 48.0495 18.353C48.9245 18.2536 49.5609 18.0895 49.9586 17.8608C50.3663 17.6321 50.5701 17.2344 50.5701 16.6676V16.5483C50.5701 15.0767 50.1674 13.9332 49.362 13.1179C48.5666 12.3026 47.3585 11.8949 45.7377 11.8949C44.0574 11.8949 42.7399 12.2628 41.7853 12.9986C40.8308 13.7344 40.1596 14.5199 39.7718 15.3551L36.4309 14.1619C37.0275 12.7699 37.823 11.6861 38.8173 10.9105C39.8216 10.125 40.9153 9.57812 42.0985 9.26989C43.2917 8.9517 44.465 8.79261 45.6184 8.79261C46.3542 8.79261 47.1994 8.8821 48.1539 9.06108C49.1184 9.23011 50.0481 9.5831 50.943 10.12C51.8478 10.657 52.5985 11.4673 53.1951 12.5511C53.7917 13.6349 54.09 15.0866 54.09 16.9062V32H50.5701V28.8977H50.3912C50.1525 29.3949 49.7548 29.9268 49.198 30.4936C48.6412 31.0604 47.9004 31.5426 46.9757 31.9403C46.051 32.3381 44.9224 32.5369 43.59 32.5369ZM44.127 29.375C45.519 29.375 46.6923 29.1016 47.6468 28.5547C48.6113 28.0078 49.3372 27.3018 49.8244 26.4368C50.3216 25.5717 50.5701 24.6619 50.5701 23.7074V20.4858C50.421 20.6648 50.0929 20.8288 49.5858 20.978C49.0886 21.1172 48.5119 21.2415 47.8556 21.3509C47.2093 21.4503 46.5779 21.5398 45.9615 21.6193C45.3549 21.6889 44.8627 21.7486 44.4849 21.7983C43.5701 21.9176 42.715 22.1115 41.9196 22.38C41.1341 22.6385 40.4977 23.0312 40.0105 23.5582C39.5332 24.0753 39.2946 24.7812 39.2946 25.6761C39.2946 26.8991 39.747 27.8239 40.6518 28.4503C41.5666 29.0668 42.725 29.375 44.127 29.375ZM64.0344 18.2188V32H60.5146V9.09091H63.9151V12.6705H64.2134C64.7504 11.5071 65.5657 10.5724 66.6594 9.86648C67.7532 9.15057 69.1651 8.79261 70.8952 8.79261C72.4464 8.79261 73.8036 9.1108 74.967 9.74716C76.1303 10.3736 77.0352 11.3281 77.6815 12.6108C78.3278 13.8835 78.6509 15.4943 78.6509 17.4432V32H75.131V17.6818C75.131 15.8821 74.6637 14.4801 73.729 13.4759C72.7944 12.4616 71.5117 11.9545 69.881 11.9545C68.7575 11.9545 67.7532 12.1982 66.8683 12.6854C65.9933 13.1726 65.3022 13.8835 64.7951 14.8182C64.288 15.7528 64.0344 16.8864 64.0344 18.2188ZM95.046 9.09091V12.0739H83.1738V9.09091H95.046ZM86.6341 3.60227H90.1539V25.4375C90.1539 26.4318 90.2981 27.1776 90.5865 27.6747C90.8848 28.1619 91.2626 28.4901 91.72 28.6591C92.1873 28.8182 92.6795 28.8977 93.1966 28.8977C93.5843 28.8977 93.9025 28.8778 94.1511 28.8381C94.3997 28.7884 94.5985 28.7486 94.7477 28.7188L95.4636 31.8807C95.225 31.9702 94.8919 32.0597 94.4643 32.1491C94.0368 32.2486 93.4949 32.2983 92.8386 32.2983C91.8443 32.2983 90.8699 32.0845 89.9153 31.657C88.9707 31.2294 88.1852 30.5781 87.5588 29.7031C86.9423 28.8281 86.6341 27.7244 86.6341 26.392V3.60227ZM110.542 9.09091V12.0739H98.193V9.09091H110.542ZM101.892 32V5.92898C101.892 4.61648 102.2 3.52273 102.817 2.64773C103.433 1.77273 104.233 1.11648 105.218 0.678975C106.202 0.241475 107.241 0.0227252 108.335 0.0227252C109.2 0.0227252 109.906 0.092328 110.453 0.231533C111 0.370737 111.407 0.499998 111.676 0.619317L110.662 3.66193C110.483 3.60227 110.234 3.5277 109.916 3.43821C109.608 3.34872 109.2 3.30398 108.693 3.30398C107.53 3.30398 106.689 3.5973 106.172 4.18395C105.665 4.7706 105.412 5.63068 105.412 6.7642V32H101.892ZM115.475 32V9.09091H118.876V12.5511H119.115C119.532 11.4176 120.288 10.4979 121.382 9.7919C122.475 9.08594 123.708 8.73295 125.081 8.73295C125.339 8.73295 125.662 8.73792 126.05 8.74787C126.438 8.75781 126.731 8.77273 126.93 8.79261V12.3722C126.811 12.3423 126.537 12.2976 126.11 12.2379C125.692 12.1683 125.25 12.1335 124.782 12.1335C123.669 12.1335 122.674 12.3672 121.799 12.8345C120.934 13.2919 120.248 13.9283 119.741 14.7436C119.244 15.549 118.995 16.4687 118.995 17.5028V32H115.475ZM131.102 32V9.09091H134.622V32H131.102ZM132.892 5.27273C132.206 5.27273 131.615 5.03906 131.117 4.57173C130.63 4.1044 130.387 3.54261 130.387 2.88636C130.387 2.23011 130.63 1.66832 131.117 1.20099C131.615 0.733664 132.206 0.5 132.892 0.5C133.578 0.5 134.165 0.733664 134.652 1.20099C135.149 1.66832 135.398 2.23011 135.398 2.88636C135.398 3.54261 135.149 4.1044 134.652 4.57173C134.165 5.03906 133.578 5.27273 132.892 5.27273ZM150.674 32.4773C148.467 32.4773 146.563 31.9901 144.962 31.0156C143.371 30.0312 142.143 28.6591 141.278 26.8991C140.423 25.1293 139.995 23.071 139.995 20.7244C139.995 18.3778 140.423 16.3097 141.278 14.5199C142.143 12.7202 143.346 11.3182 144.887 10.3139C146.439 9.29972 148.248 8.79261 150.316 8.79261C151.51 8.79261 152.688 8.99148 153.851 9.3892C155.015 9.78693 156.074 10.4332 157.028 11.3281C157.983 12.2131 158.743 13.3864 159.31 14.848C159.877 16.3097 160.16 18.1094 160.16 20.2472V21.7386H142.501V18.696H156.581C156.581 17.4034 156.322 16.25 155.805 15.2358C155.298 14.2216 154.572 13.4212 153.627 12.8345C152.693 12.2479 151.589 11.9545 150.316 11.9545C148.914 11.9545 147.701 12.3026 146.677 12.9986C145.663 13.6847 144.882 14.5795 144.336 15.6832C143.789 16.7869 143.515 17.9702 143.515 19.233V21.2614C143.515 22.9915 143.814 24.4581 144.41 25.6612C145.017 26.8544 145.857 27.7642 146.931 28.3906C148.005 29.0071 149.252 29.3153 150.674 29.3153C151.599 29.3153 152.434 29.1861 153.18 28.9276C153.936 28.6591 154.587 28.2614 155.134 27.7344C155.681 27.1974 156.103 26.5312 156.402 25.7358L159.802 26.6903C159.444 27.8438 158.843 28.858 157.998 29.733C157.152 30.598 156.108 31.2741 154.865 31.7614C153.623 32.2386 152.225 32.4773 150.674 32.4773ZM169.034 18.2188V32H165.515V9.09091H168.915V12.6705H169.213C169.75 11.5071 170.566 10.5724 171.659 9.86648C172.753 9.15057 174.165 8.79261 175.895 8.79261C177.446 8.79261 178.804 9.1108 179.967 9.74716C181.13 10.3736 182.035 11.3281 182.681 12.6108C183.328 13.8835 183.651 15.4943 183.651 17.4432V32H180.131V17.6818C180.131 15.8821 179.664 14.4801 178.729 13.4759C177.794 12.4616 176.512 11.9545 174.881 11.9545C173.757 11.9545 172.753 12.1982 171.868 12.6854C170.993 13.1726 170.302 13.8835 169.795 14.8182C169.288 15.7528 169.034 16.8864 169.034 18.2188ZM198.733 32.4773C196.824 32.4773 195.139 31.995 193.677 31.0305C192.216 30.0561 191.072 28.6839 190.247 26.9141C189.422 25.1342 189.009 23.0312 189.009 20.6051C189.009 18.1989 189.422 16.1108 190.247 14.3409C191.072 12.571 192.221 11.2038 193.692 10.2393C195.164 9.27486 196.864 8.79261 198.793 8.79261C200.285 8.79261 201.463 9.04119 202.328 9.53835C203.203 10.0256 203.869 10.5824 204.327 11.2088C204.794 11.8253 205.157 12.3324 205.415 12.7301H205.714V1.45454H209.233V32H205.833V28.4801H205.415C205.157 28.8977 204.789 29.4247 204.312 30.0611C203.834 30.6875 203.153 31.2493 202.268 31.7464C201.383 32.2337 200.205 32.4773 198.733 32.4773ZM199.211 29.3153C200.623 29.3153 201.816 28.9474 202.79 28.2116C203.765 27.4659 204.506 26.4368 205.013 25.1243C205.52 23.8018 205.773 22.2756 205.773 20.5455C205.773 18.8352 205.525 17.3388 205.028 16.0561C204.53 14.7635 203.795 13.7592 202.82 13.0433C201.846 12.3175 200.643 11.9545 199.211 11.9545C197.719 11.9545 196.476 12.3374 195.482 13.103C194.498 13.8587 193.757 14.8878 193.26 16.1903C192.773 17.483 192.529 18.9347 192.529 20.5455C192.529 22.1761 192.778 23.6577 193.275 24.9901C193.782 26.3125 194.528 27.3665 195.512 28.152C196.506 28.9276 197.739 29.3153 199.211 29.3153Z" fill="#F8F8F8"/>
</svg>
